<svg id="Capa_1" data-name="Capa 1" xmlns="http://www.w3.org/2000/svg" viewBox="0 0 369 393"><defs><style>.cls-1{fill:#fefefe;}.cls-2{fill:#02567a;}.cls-3{fill:#04abbd;}.cls-4{fill:#fbfbfb;}.cls-5{fill:#fff;}.cls-6{fill:#40b2bf;}.cls-7{fill:#56b4b6;}.cls-8{fill:#43b0b9;}.cls-9{fill:#74b9c0;}.cls-10{fill:#45b2ba;}.cls-11{fill:#4babaf;}</style></defs><path class="cls-1" d="M24.61,234.52q0-95.8-.11-191.61c0-4.09.81-4.89,4.95-4.89q179.55.23,359.09,0c4.14,0,5,.81,5,4.89q-.22,191.61,0,383.22c0,4.09-.82,4.9-5,4.89Q209,430.81,29.45,431c-4.14,0-5-.8-4.95-4.89Q24.74,330.33,24.61,234.52Z" transform="translate(-24.5 -38.02)"/><path class="cls-2" d="M218.92,243.58c-8.21-6-8-7.82-5.64-17.68,3.81-15.58,13.5-26.08,26.53-34.6,4.82-3.16,9.8-5,14.61-2.25,11.61,6.51,22.43,3.51,33.07-1.67,6.19-3,9.64-1,12.55,4.37a54.4,54.4,0,0,1,5.82,15.57c1.72,9.11-1.28,16.43-9.72,19.9-3.3,1.36-1.37,4.39-4.14,5.2-2.08-4.27-3.51-3-5.9.43-7.23,10.35-4.72,20.41.34,30.38,3.41,6.7,7.4,13.11,11.13,19.66.94,1.1-3,1.82.1,3.64,3.7,2.19,4,6.93,5.43,10.76.27.74.51,1.92,0,2.26-6.5,4-3.07,10.63-4.34,16a4.69,4.69,0,0,1-.36,1,.84.84,0,0,0-.32.81,1.1,1.1,0,0,1,.73-.72c3.49-1.78,1.7-4.88,1.93-7.44.13-1.37-.33-2.74-.21-4.13a2.17,2.17,0,0,1,2.31-2.2c1.32,0,2.44.35,2.48,1.9.17,6.46,1.58,12.92.15,19.4-.35,1.57-.77,3.61-2.81,2.7-1.75-.77-.24-2.34.15-3.64-1,2.72-1.76,5.55-5.1,6.56s-6.27-.75-9.43-.74a4,4,0,0,1-2.3-2.38c-2.35-4-7.87-5.11-13.71-2.81a30.05,30.05,0,0,0-13.31,15.25c-2.68,4.91-2.68,4.91-6.27,0a84.57,84.57,0,0,0-23-23.64,1.68,1.68,0,0,1-.48-1.36c.26-1.1.88-2.25-.38-3.19-.76-.68-1.77-1.19-1.71-2.43,1.95-2,4.28-3.84,1.51-6.92a2.47,2.47,0,0,1,0-3.32c3.37-3.78,1.47-8.36,2.53-12.76-5.31.15-6.25,3.9-7.93,7.27s-2.56,8.16-8.36,5.56a2.82,2.82,0,0,1,.35-2.49c1.31-3.54,3.94-6.25,6-9.34,1.63-1.25,1.81-3.22,2.5-4.93,1.88-8.46,3.26-16.85.42-25.46a55.62,55.62,0,0,0-3.88-8.95c-.82-4.36,2-3.18,4.08-2.4,5.28,2,10,5,14.64,8.2,2.67,1.82,5.42,3.31,8.83,3.42,7.43.22,11.8-4.16,11.11-11.47a17.75,17.75,0,0,0-5.41-11c-2.53-2.54-5-5.18-7.73-7.51s-5.67-4.41-8.44-6.77c3.36,5.17,8.21,9,12.4,13.49,3.34,3.56,6.16,7.3,5.73,12.59-.49,6-4.34,8.87-10.3,7.42a33.14,33.14,0,0,1-9.32-4.1C230.64,245.88,225.14,243.61,218.92,243.58Z" transform="translate(-24.5 -38.02)"/><path class="cls-3" d="M191.19,353.57c-6.63,2.41-13.08,5.16-18.26,10.08-1.87,1.78-3.44,1.29-5.34.06-7.6-4.92-12.15-11.44-11.63-20.77a51.3,51.3,0,0,1,3.3-26.95c.72-1.85.82-3.81,1.53-5.63l0,0c2.21-2,3-4.67,3.63-7.4a.76.76,0,0,1,.28-.85c3-.73.9-3.61,2.17-5.07,1.62-8.77-.07-15.75-8.77-20.68-6.24-3.53-3.16-9.72-2.07-15,4.39-.07,7,2.05,7.94,6.48.64-3.3-3-5.14-2.3-8.23.56-1.36,2.73-1.16,2.89-2.91a10.9,10.9,0,0,1,9.34-7.77c4.85-.77,9.61-2,14.41-3.09,2.32-2.22,4.7-4.67,5.32,1.1.13,1.21.29,2.33,1.89,2.33,2.73-1.29,2.67-5.56,6.35-5.8,4.59,6.5,5.84,14.13,7.5,21.62,2,7.47.75,15-.58,22.27-2.34,12.67.09,22.9,11.54,30.11-.23.08,0,0,0,0l3.48,1.44a10.21,10.21,0,0,0,6,3.5,29.89,29.89,0,0,1,10.91,9.64c1,1,1.18,2.76,2.75,3.35,5.62,5.71,8.54,12.91,11.32,20.15,1.16,3,1,5.5-3.53,5.24-6.8-.4-13.65-.27-20.24-2.37-7.68-1.56-15.23-3.76-23-4.93h0c2-4,2-4,6.7-3.24-5.13.06-11-4.86-17.5-3.37a38.78,38.78,0,0,1,6,.33c2.12.2,2.56,1.36,2.64,3.2.11,2.44-1.44,2.41-3.13,2.4-4.5,0-9,.42-12.42-1.11C190.5,351.72,191.69,351.76,191.19,353.57Z" transform="translate(-24.5 -38.02)"/><path class="cls-2" d="M122.15,306.89c8.12,26.26,22,48.54,45.52,64.14,1.82,1.2,3.62,2.66,6,1.37,1.71-1.7,3.81-3,5.15-5,8.22-7.85,18.24-9.57,29-7.58,7,1.31,13.9,3.55,20.83,5.38.83,1.28,2.15.78,3.28.83,5.5.21,5.57.23,3.25,5.31-.82,1.79-.32,2.65,1.42,3a12.36,12.36,0,0,0,4.8-.27c11.56-2.08,23.22-2,34.89-1.43a6,6,0,0,1,1.21.06c2.61.69,6.63.32,6.89,3.53.29,3.62-4,3.64-6.41,3.92-12.23,1.42-24.38,2.91-36.87,1.34-7.39-.93-15.11.32-22.81-1.71-.14,3.56.11,6.54,4.48,7,20.71,14.81,43.25,14.5,66.55,7.82,2.3-.65,4.61-1.27,6.91-1.91,3.15.95,3.78,3.46.63,4-6.54,1.07-11.88,3.71-17.41,7.16-2.55,1.58-8.12,1-11.34-.48-6.6-2.93-13.3-2.12-19.52-1-4.85.86-8.19-1.59-12.32-2,5.1,2.08,10.25,3.85,15.48,5.41,1.41.42,3.61.35,3.27,2.61-.26,1.79-2,2.31-3.66,2.58-2.2.36-4.58.74-6.58,0-5.77-2.12-11.36-1.95-16.39.58,10.17.33,21.22,1.43,31.65-.25,8-1.28,16.33-1.11,24.14-3.72,2.32-.77,4.7-1.48,6.49,1.07-24,8.86-48.61,9.31-73.52,5.11a100.9,100.9,0,0,1-23.65-6.59,34.69,34.69,0,0,0-6.77-3.2c-1.71-.6-4.5-.75-4.07-3.84,5-4.13,8.46,2.05,13.22,2.38-5-6.07-8.35-6.61-13.17-2.45-2.79,1.49-5-1.12-7.6-1-29.43-14.9-50.6-37.26-62.73-67.78,2.19-3.61-2.53-6.89-.53-10.49a2.66,2.66,0,0,1,1.19-.93c1.59.26,1.86-1,2.31-2,.7-1,.2-1.81-.3-2.65a16.71,16.71,0,0,1,0-7.83,2.76,2.76,0,0,1,1.87-1.84,3.09,3.09,0,0,1,2.45,2.32,6.83,6.83,0,0,1-.14,2.16A19.06,19.06,0,0,0,120,308C120.44,307.16,121,306.51,122.15,306.89Z" transform="translate(-24.5 -38.02)"/><path class="cls-2" d="M307.14,359.28c16.5-11.11,30.35-24.64,40.18-42,14.12-25,17.74-51.2,10.26-78.82-.87-3.21-1.24-5.21,2.25-7.34,4.23-2.59,2.42-7.55,3-11.55.35-2.23-1.92-5.8,1.95-6.44,3.14-.52,3.29,3,4.16,5a123.77,123.77,0,0,1-54.64,157.43c-1.39.76-2.91,1.29-4.37,1.93-3,.15-5.29,1.85-7.59,3.49l.05,0c-2.44.94-3.84.35-3.74-2.47v0a13.81,13.81,0,0,0,3.13-10.41c-.17-2.28-.62-4.78,1.65-6.52l-.1.07C304.75,361.06,306.22,360.6,307.14,359.28Z" transform="translate(-24.5 -38.02)"/><path class="cls-2" d="M215.27,149.24l8.54-3.05c-4.09-4.11-10-4.63-13.47-8.63-.09-2.22,1.09-2.18,2.66-1.45l3.51,1.4c1.82,1.55,4.17,1.54,6.33,2.11,11.89,3.41,24.13,3.22,36.36,3.78,22.61,1,43.76,7.08,62.55,20a14.39,14.39,0,0,0,3.4,2.61l1.38,1.16c3.25,2.58,2.56,6.36,3,9.78.25,2-.89,2.72-2.87,2.77-3.8.09-7.53,0-11-1.8l-9.75-6.9a17.21,17.21,0,0,0-8.94-4.51c-9.83-1.92-19.72-1.65-29.61-.35l.12-.06c-1.81.38-4.92,1.41-4.8-.79.13-2.49-6.25-3.55-1.3-6.48a1.59,1.59,0,0,0-.12-2.38c-25.67-2.65-49.35,3-71.14,16.6-2.7,1.69-5.41,3.36-8.11,5-3.43.82-4.84,4.3-7.79,5.76l-.38.26-.47,0c-2.77.72-4.92,0-6.23-2.65a11,11,0,0,1-.37-3.57c7.47-8.12,16.47-14.19,26.28-19.19,4.15-2,8.9-2.85,12.57-5.88l-.05,0c1.79-1.39,5.16,1.11,6.1-2.39h0C212.58,149.29,214.94,152.28,215.27,149.24Z" transform="translate(-24.5 -38.02)"/><path class="cls-2" d="M117.36,305.69l-1.21,1.19c-.48,3.19-4,6.37,0,9.55q1.25.6,0,1.2c-1.08.52-.05,3.13-2.41,2.38h0c-3.07-.52-.85,3.16-3.75,3.66a136.56,136.56,0,0,1-6-62.71c1.22-18.41,8-35.07,16.92-50.93a134.53,134.53,0,0,1,37.64-42.81,1.62,1.62,0,0,1,2.47.15,1.43,1.43,0,0,1-.16,2c-16.91,16.65-28.16,36.7-36,58.76-1.82,5.74-4.33,11.27-4.68,17.44-.13,2.36-3.73,4.28-1,7.18.29.31-.15,1.14-.23,1.72-2.06,14.94-2.3,29.82,1.4,44.58C119.84,301.5,121.17,304.69,117.36,305.69Z" transform="translate(-24.5 -38.02)"/><path class="cls-2" d="M290.68,408.55c-1.7-.06-3.16-.94-5.16,0a22.32,22.32,0,0,1-12.83,2c-2.84-.37-6-.52-8.37,2A4.2,4.2,0,0,1,261,413.6c-11.24-.2-22.49-.29-33.73-.5-1.61,0-4.32.81-4.29-1.78s2.72-1.62,4.35-1.73c2-.14,3.9-.12,5.73-1.35,2.52-1.69,5.28-1.52,8-.06,4.32,2.36,8.68,1.6,13.14,0-6.1-.69-10.94-4.76-16.94-5.67-1.49-.23-5.09,1.14-4.11-2.3.76-2.66,5.93-2.92,6.31-2.2,3.54,6.57,8.94,1.24,13.26,2.19,5.3,1.17,11.47-2.53,16.3,2.56,3.12-6.16,10.45,5.11,14-3.47.9-2.17,7.34-5.08,12.33-3.37,1,.35,2.31.19,2.43-.93.07-.71-1-1.54-1.55-2.32,14.25-6.67,26.93-15.67,39.18-25.35,3.64-2.87,7.8-4.06,12.42-2.22,2.87,1.15,3.87,2.71,1.47,5.29C333,387.91,314.11,401.65,290.68,408.55Z" transform="translate(-24.5 -38.02)"/><path class="cls-2" d="M297.51,317.63c0-4.13,0-8.26,0-12.39,0-2.62-.36-5.62,3.81-5.45,1.28,0,.92-.89,1-1.55.42-3.66-4.16-10.55-8.13-11.36-1.94-.39-.91-.94-.8-1.72.35-2.66,3.1-1,4.16-2.27,12,20.25,12,41.09,3,62.31-1.24,2.93-2.8,5.73-4.28,8.55-2.28,4.35-9.34,7.72-12.84,6.19s-4.38-9.24-1.74-14c.56-1,1-2.13,1.5-3.19,1-2.85,2.33-5.35,6.12-4.65a3.71,3.71,0,0,1,.73,3.22,6.8,6.8,0,0,1-1.17,2.44c-.26.38-.29.83-.08.82.6,0,.78-.65,1.13-1.05,5.08-3.74-.7-4.55-1.81-6.61-.62-2.86-1.63-5.72.13-8.54,1.15-.34,2.61-1.29,3.39-.91,7.14,3.55,9.44-.9,11-6.57,1.95,1.78-.33,3.74.82,5.41,2.36-7,.58-14.25,1.13-21.35.08-1-1-.89-1.78-.92-1.67-.07-1.48.84-1,1.86,1,2.48-.07,5.21.65,7.6C304.14,319,300.61,318,297.51,317.63Z" transform="translate(-24.5 -38.02)"/><path class="cls-2" d="M222.78,386.78c-2-.83-1.95,3.19-3.5,1.8-2.33-2.11-2.07-5.5-2.53-8.38a15.29,15.29,0,0,1,.12-3.48c8.19,6.6,59.79,6,67.25-.82-10.66-3.26-21.33-2-31.89-1.71-4.35.12-8.65,1.51-13,1.78-2.29.15-5.66,1.7-6.78-1.81-1-3.18.81-5.26,4.47-5.7-2.34-3.53-6.5-.19-8.27-3.31,16.87,2.1,33.8,1.58,50.73,1.35,2.61,4.05,7.63,3.82,11.22,6.14-3.92,7.82-11.62,8.42-18.92,9.34-15.25,1.91-30.53.75-45.8-.17-1.93-.12-3.91-1.05-6,.22C219.59,384.34,222,385.09,222.78,386.78Z" transform="translate(-24.5 -38.02)"/><path class="cls-4" d="M218.92,243.58c3.33-2.42,6.64-1,9.71.35,4.77,2.09,9.29,4.72,14,6.85,3.25,1.47,6.92,3.38,9.79-.53s2.52-7.78-.18-11.6c-3.6-5.09-8.59-8.89-12.79-13.43-2.64-2.85-5.19-5.76-4.61-10.25,7.18,7.31,16,12.68,22.31,20.69a15.89,15.89,0,0,1,2.72,5.28c1.51,5.21,1.47,10.38-3,14.31-4.65,4.11-10.07,3.81-15.18,1.1-5.65-3-10.92-6.69-16.54-9.75-1.31-.71-3.88-3.56-5,.6C218.72,246.37,219,244.93,218.92,243.58Z" transform="translate(-24.5 -38.02)"/><path class="cls-2" d="M263.57,158.64l-3,2.41c.79,1.42,7.67-1.61,3,4.11-.59.72,2.57.38,3.88,1-13.54,2.52-26.94,5.48-39.71,10.75a12.57,12.57,0,0,0-5.18,2.2l-10.75,6.1c-3.32-.36-1.8-2.46-1.52-4.12l6.2-4.31c1.61-.83,3.54-1,4.86-2.42,11.53-8.49,25.08-12.07,38.68-15.54A2.94,2.94,0,0,1,263.57,158.64Z" transform="translate(-24.5 -38.02)"/><path class="cls-2" d="M151.3,210.36a201.79,201.79,0,0,0-18.57,40.41c-1.15,3.42-1.48,7.11-2.19,10.68-3.34-2-1.17-4.88-1.28-7.39a108.57,108.57,0,0,1,16.88-49.93c1.77-1,3.05-3.52,5.61-2.08,1.8,1,3.19,2.41,2.06,4.76l.06-.06C152.29,207.46,151.78,208.9,151.3,210.36Z" transform="translate(-24.5 -38.02)"/><path class="cls-2" d="M215.3,298.52c4.52-.13,5.31-3.57,6.74-6.85,1.52-3.48,2-8.75,8.23-7.22.72.17,2.26-1,1.9.79-.89,4.52,2.51,9.8-2.42,13.6-1.09.85-.69,1.77.13,2.46,5.31,4.55,1.32,6.22-2.49,8-.53,1.9-2.12,2.39-3.78,2.77-1-.08-1.92-.19-2.38-1.22-1.18-1-1.48-3.31-3.85-2.59a2.79,2.79,0,0,1-2.17-2.3C214.57,303.45,213.24,301,215.3,298.52Z" transform="translate(-24.5 -38.02)"/><path class="cls-3" d="M275.2,353.24c-.66,2.47,4.53,5.6-.39,7.4-6.15,2.25-11-.2-11.79-5.74-1.32-9.21-.49-17.92,7.83-24.17a2.61,2.61,0,0,1,2.23-.44c1.42,1.22-.28,2.77.45,4.06,2.47,1,3.29,2.85,1.08,4.33-2.83,1.89-2.49,4.57-3,7.14-.19.92-.84,2,.8,2.12C276.49,348.12,274.66,351.27,275.2,353.24Z" transform="translate(-24.5 -38.02)"/><path class="cls-2" d="M153.81,206.81c-1.05-5.11-4.45-3.64-7.67-2.68A82.94,82.94,0,0,1,164.4,180.2c3,1.36,2.67,6.62,7.29,6.1Z" transform="translate(-24.5 -38.02)"/><path class="cls-2" d="M119.65,298.66a7.68,7.68,0,0,1-2.24-4.73c-1.1-12.58-1.79-25.26.36-37.68.76-4.4-2.57-6.7-2.38-10.35,2.2-.39,1.45,1.91,3,2.82,1.55-7.15,2.24-14.45,6.4-20.59-4.66,16.83-7.21,33.9-6.27,51.42a63.12,63.12,0,0,0,1.35,11.72c2,2.09.75,4.38.43,6.62Z" transform="translate(-24.5 -38.02)"/><path class="cls-3" d="M275.2,353.24c-1.2-1.39.17-6.19-4.47-3.1-1.24.82-2.47-1.53-2-1.92,3.51-2.69-.46-9,5.27-10.47.43-.11.68-.9,1-1.39-1.22-1.37-3.19,1.37-4.16-.83,3.58-3.21,7.3-6,12.61-4.52,1.73,1.18,2.05,2.85,1.67,4.75a4.82,4.82,0,0,1-.78,1.51c-2.29,3.57-8.19,3.73-8.7,9Z" transform="translate(-24.5 -38.02)"/><path class="cls-2" d="M103.93,261c.39,4.94-1.18,9.94-.8,14.63,1.28,15.78.77,31.93,7.43,46.86,1.3-3.27,1.3-3.27,3.17-2.44-3.57,3.34,2.39,7.8-1.34,11.12C102.78,308.54,99.45,285.21,103.93,261Z" transform="translate(-24.5 -38.02)"/><path class="cls-3" d="M334.78,174.19c-1.51-8.6-.88-9.37,7.65-9.39,15.55-.06,15.55-.06,15.9,15.6,0,1.19.09,2.37.13,3.56l-.77.51a3,3,0,0,1-1.81-.16c-1.42-1-1.64-2.47-1.8-4-.09-1.15-.08-2.3-.08-3.45-.24-2.86,1-6-1.81-8.32-1.42-.87-2.88-.38-4.34-.14-5-.53-9,.67-10.82,5.86a2.42,2.42,0,0,1-1.59.46Z" transform="translate(-24.5 -38.02)"/><path class="cls-3" d="M191.19,353.57c-1.62-2.43-4.69-.43-6.83-2.24,1.23-2.25,2.95-1.26,4.54-.79a47.62,47.62,0,0,0,13.66,1.81c2.34,0,1.28-1.45,1.79-2.31,1.18-2-.15-1.88-1.4-2L192.21,347c11.34-2.3,20.32,1.69,29.64,3.89-2.3,1.88-4.64,1.34-7.1.61-2.62-.78-5.24-1-6.78,2Z" transform="translate(-24.5 -38.02)"/><path class="cls-3" d="M336,228.19c-3.83-4.05-1.69-9-1.68-13.42s-1.09-6.64-6-6c-2.73.36-5.56,0-8.34.13-4.34.24-6.47-1.38-5.5-5.89a1.86,1.86,0,0,1,2.31-.28c1.92,3.55,3.66,3.54,5.2-.27a3.43,3.43,0,0,1,3.25,0c1.19,1.22,1.36,3.63,4.3,2.59,4.78-1.67,6.88.93,7.45,5.34-.34,3.71-.8,7.41.3,11.08.59,2,1.89,3.73,1.79,5.9C338.29,228.85,337.2,228.83,336,228.19Z" transform="translate(-24.5 -38.02)"/><path class="cls-3" d="M358,184l.51-.08,1.91,1.11c5.6,1.8,11.47-.42,17.08,1.19,1.81,7.19,2.54,14.37-.31,21.5-2,1-4,.75-6,.2-.57-2.36,1.28-3.53,2.54-5,2.65-3.06,2.4-6.71,1.37-10.07s-4.6-2.27-7.23-2.48c-2.37-.19-4.8.16-7.14-.41C357.31,189.19,355.82,187.39,358,184Z" transform="translate(-24.5 -38.02)"/><path class="cls-3" d="M194.34,178.87c2.81.5,6.94.4,6.8,4.07-.11,2.9-3.93,3.53-6.84,3.47-3.21-.07-7.6-.36-7.54-4C186.81,179.45,191.23,179.25,194.34,178.87Z" transform="translate(-24.5 -38.02)"/><path class="cls-3" d="M216.93,194.87c-.43,3.47-1.2,6.68-4.25,8.79a1.42,1.42,0,0,1-2.07-.5c-1.89-3.13-1.72-6.42-.32-9.62.84-1.92,1.65-4.82,4.08-4.46C217.43,189.52,216.4,192.79,216.93,194.87Z" transform="translate(-24.5 -38.02)"/><path class="cls-2" d="M290.6,372.64c-4.75-.26-10.29.9-11.22-6.14,2.13-.35,4.26-.86,6.41-1C293.31,365,293.68,365.56,290.6,372.64Z" transform="translate(-24.5 -38.02)"/><path class="cls-3" d="M316.86,203H314.4c0-4.32,0-8.65-.19-13-.15-3.68,1.23-5.54,5.2-5.25,3.17.24,6.36.2,9.54.28a1,1,0,0,1,.37,1.16c-1.26.75.63,2.25-.74,3-2.59,1.35-5.45-1.22-8,.6a9.91,9.91,0,0,0-1,1.12c-1.82,3.64-.54,7.84-2.1,11.52Z" transform="translate(-24.5 -38.02)"/><path class="cls-5" d="M289,337.78l-5.75,5a3,3,0,0,1-2.68-1.07,13.18,13.18,0,0,1,3.74-4.89l0,0a6.6,6.6,0,0,0,.91-1.24c.33-1.89.69-3.78-1.28-5.09-1.84-2.13-5.27-1.15-7-3.48.91-1,2.54-1.65,1.33-3.41,3.45-1.2,6.4-.88,8.31,2.64.59.71,1.17,1.43,1.75,2.15,1.38,3.09,1.25,6.28.66,9.5Z" transform="translate(-24.5 -38.02)"/><path class="cls-3" d="M138.38,311.71c-.71,1.43.64,4.94-2.49,4.1-4.55-1.21-5.33-5.51-5.38-9.61,0-1.69.34-4.47,2.66-3.68C137.16,303.89,138.75,307.37,138.38,311.71Z" transform="translate(-24.5 -38.02)"/><path class="cls-3" d="M371.27,207.75h5.87c-4.53,2.18-9.36,1-14.05,1.1-2.83.08-4.65.74-5,3.71a5.43,5.43,0,0,1-1.8,1.19,5.11,5.11,0,0,0-2.81,2.19c-2.47,2.82-3.68,1.1-4.71-1.27a4.7,4.7,0,0,1,.15-2.52c3.32-7.88,3.36-8.14,12-6.49C364.32,206.33,368.2,205.23,371.27,207.75Z" transform="translate(-24.5 -38.02)"/><path class="cls-3" d="M172.91,200.84c-1.17-.58-3-.93-1.37-2.74a8.86,8.86,0,0,1,2.58-1.45c3.84-1.94,7.65-2,11.26.44,1,.64.75,1.75-.12,2.51-3.24,2.87-6.84,3.8-10.94,1.87C174.29,200.32,173.89,200,172.91,200.84Z" transform="translate(-24.5 -38.02)"/><path class="cls-6" d="M218.94,124.26a2.84,2.84,0,0,1,.1.57c.08,2.68.65,5.48-2.34,7.23a2.12,2.12,0,0,1-3.09-.5c-1.84-2.66-3-5.46-.69-8.5C216,118.14,217.54,120.89,218.94,124.26Z" transform="translate(-24.5 -38.02)"/><path class="cls-3" d="M209.33,265.13c-1.74-5.34-3.38-10.71-5.27-16-.72-2-1.45-4.11-3.27-5.53l-.69,0c-1.18,0-2.3.37-3.47.43a1,1,0,0,1-1-.83c1.48-2.26,2.59-4.82,5.66-7C203.4,246.35,209.85,254.69,209.33,265.13Z" transform="translate(-24.5 -38.02)"/><path class="cls-3" d="M193.57,137.39a5.36,5.36,0,0,1,5.08-1.15c2.26.51,4.84.54,6.49,2.54.85,1,.23,1.72-.84,2.24-2.43,1.17-4.6,3.5-7.67,1.49-.65-.43-1.35-.8-2-1.2C194,140.06,192,139.19,193.57,137.39Z" transform="translate(-24.5 -38.02)"/><path class="cls-3" d="M162.09,259.23c1.11,2,1.57,4.37,3.83,5.78,1.32.82,1.2,2.42.21,3.68-.72.92-1.46,2-2.9,1.58s-2-1.26-1.74-3.08c.44-2.64-.33-4.67-3.93-3.74-1.28.33-1.34-1.13-1.57-2.05.53-1.73,1.84-2.31,3.52-2.35A1.88,1.88,0,0,1,162.09,259.23Z" transform="translate(-24.5 -38.02)"/><path class="cls-7" d="M187.88,123c2.87.74,6,1.57,6.55,5,.28,1.93-2.1,2.18-3.59,2-3-.43-6.2-1.47-6.89-4.66C183.38,122.67,186.16,123.29,187.88,123Z" transform="translate(-24.5 -38.02)"/><path class="cls-2" d="M267.33,166.19c5-3,10.5-.91,15.74-1.31,7-.53,14-.34,20.43,3.28,1.32.75,2.5,1.18,2.38,2.89-9.93-6.25-21-5.2-32-5C271.72,166.14,269.52,166.16,267.33,166.19Z" transform="translate(-24.5 -38.02)"/><path class="cls-3" d="M160.79,310.36c2.47,4.06-1.55,6.65-2.37,9.95A78.89,78.89,0,0,0,156,342.94C153.81,331.54,155,320.62,160.79,310.36Z" transform="translate(-24.5 -38.02)"/><path class="cls-3" d="M167.62,234.52c-2.1-.28-2.09-1.78-1.83-3.13.57-3,1.67-5.85,5-6.7,2.05-.53,2.23,1.26,2.07,2.65C172.49,230.69,170.89,233.27,167.62,234.52Z" transform="translate(-24.5 -38.02)"/><path class="cls-8" d="M191.67,108.1c2.71,1.52,3.37,4.26,3.84,6.94.31,1.71.2,4.33-2.23,3.85-2.92-.58-3.34-3.64-3.49-6.23C189.7,111,189.29,109,191.67,108.1Z" transform="translate(-24.5 -38.02)"/><path class="cls-2" d="M315.63,178c1.32.12,2.52-.71,4,.23,2.68,1.69,6.56,2,8.38,0,2.13-2.29.06-5.83-1.32-8.45a2.85,2.85,0,0,1-.18-2.58c6.66,1.89,3,7.21,3.35,10.9.42,3.92-3.42,2.23-5.44,2.38C321.28,180.71,317.9,181,315.63,178Z" transform="translate(-24.5 -38.02)"/><path class="cls-3" d="M195,206.29a1.72,1.72,0,0,1,.94.37A12.44,12.44,0,0,1,196,215h0c-1.27,2.37-2.73,1-4.16.2-1.78-2.74-3.1-5.52-.55-8.53A6.8,6.8,0,0,1,195,206.29Z" transform="translate(-24.5 -38.02)"/><path class="cls-3" d="M336,228.19c1.05-.11,2.09-.23,2.67-1.29,4.42-2.39,9.66-.39,14.1-2.62a5.91,5.91,0,0,1,1.5.66,9.15,9.15,0,0,1,2.38,3.14A45.86,45.86,0,0,1,336,228.19Z" transform="translate(-24.5 -38.02)"/><path class="cls-3" d="M137.84,272.31l2.45,3.6c0,2.38,3,5.95-2.52,6.09l0,0c-2.41-2.13-4.12-4.51-4.13-7.95C133.64,269.82,135.47,270.62,137.84,272.31Z" transform="translate(-24.5 -38.02)"/><path class="cls-3" d="M196,250.77c-2,.1-5.09,2.07-3.78-2.73s-1.52-3.31-3.9-2.16c.59-2.47,1.19-4.94,1.79-7.47,2.65,1,1.8,5.47,5.58,4.83l.36.41c1,1.88-.29,3.92.41,5.83A1.22,1.22,0,0,1,196,250.77Z" transform="translate(-24.5 -38.02)"/><path class="cls-3" d="M356.6,228.08a2.14,2.14,0,0,1-2.26-2.38c-.58-4.46-1.28-8.94,1.2-13.13h2.52C357.93,217.77,359.86,223.16,356.6,228.08Z" transform="translate(-24.5 -38.02)"/><path class="cls-2" d="M210.29,181.06c.23,1.47-.09,3.14,1.52,4.12a27.67,27.67,0,0,1-8.23,4.85c-2.24.34-2.3-.75-1.59-2.35A33.9,33.9,0,0,1,210.29,181.06Z" transform="translate(-24.5 -38.02)"/><path class="cls-2" d="M171.69,186.3l-5.9,2.36c1.08-3.48-.68-5.84-1.39-8.46h0a5.35,5.35,0,0,1,3.76.12c.32,3.17,3.58,2.36,5.2,3.76Z" transform="translate(-24.5 -38.02)"/><path class="cls-2" d="M160.8,169.37c0-1.51-.86-2.14-2.31-2.15,3.41-3,6.55-6.42,12-6.38Z" transform="translate(-24.5 -38.02)"/><path class="cls-2" d="M286.52,326.21c-2.51-1.68-5-3.42-8.31-2.64-2-.82-4,.13-6,.32a8.73,8.73,0,0,1,0-1.77c.52-2.55,1.59-1.27,2.84-.49C278.59,323.85,285.6,317.54,286.52,326.21Z" transform="translate(-24.5 -38.02)"/><path class="cls-2" d="M182.65,400c2.23,4.44,8.57,2.73,10.86,7.07-6.46-2-12.74-4.39-18.39-8.16,2.78-1.49,5,.64,7.53,1.09Z" transform="translate(-24.5 -38.02)"/><path class="cls-3" d="M208,353.5c8,0,15.57,2.23,23,4.93C223.05,358,215.47,355.91,208,353.5Z" transform="translate(-24.5 -38.02)"/><path class="cls-3" d="M125.88,286.57c1.27,4,2.88,8.2-3.6,9.32a3.17,3.17,0,0,1-1.06-1.52,11.18,11.18,0,0,1,1-5.41h0C123.32,288,123.59,285.77,125.88,286.57Z" transform="translate(-24.5 -38.02)"/><path class="cls-2" d="M202,187.68a2.35,2.35,0,0,0,1.59,2.35,20.12,20.12,0,0,1-7.37,6c-1.38.31-1.91-.22-1.61-1.57C196.84,191.94,198.82,189.18,202,187.68Z" transform="translate(-24.5 -38.02)"/><path class="cls-3" d="M284.28,336.77c-.1,2.48-2.23,3.45-3.74,4.89l-4.83,4.61C275.51,342.51,278.05,339.69,284.28,336.77Z" transform="translate(-24.5 -38.02)"/><path class="cls-3" d="M329,186.29v-1.2c4.15.2,5.63-1.86,5.24-5.77-.16-1.7-.45-3.52.59-5.13l.35.3c3.06,3.49,2.9,7.48.68,11C334.38,187.74,331.53,188.41,329,186.29Z" transform="translate(-24.5 -38.02)"/><path class="cls-2" d="M223.61,312c.72-1.64,2.4-2,3.78-2.77a2.5,2.5,0,0,1,2.42,1.19c1.36,1.19.25,2.39,0,3.58l-.12,1.48A17,17,0,0,1,223.61,312Z" transform="translate(-24.5 -38.02)"/><path class="cls-2" d="M129.26,254.06c.94,2.38-.88,5.22,1.28,7.39.87,2,.14,4-.08,6-.48.76-.81,1.81-2.09,1.15C128.3,263.76,127.36,258.82,129.26,254.06Z" transform="translate(-24.5 -38.02)"/><path class="cls-2" d="M303.46,361.57c-1.38,2.8-1.1,5.79-1.09,8.75,0,3.28-.4,6.35-3.69,8.18,1.48-4.57,3.5-9,2.64-14A2.32,2.32,0,0,1,303.46,361.57Z" transform="translate(-24.5 -38.02)"/><path class="cls-3" d="M137.84,272.31c-2.05-.46-3.93-1-3.58,2.39.31,2.92,2.58,4.78,3.53,7.32-4.19-1.4-4.76-4.88-4.92-8.52-.05-1.32-.26-3.05,1.43-3.51S137.3,270.59,137.84,272.31Z" transform="translate(-24.5 -38.02)"/><path class="cls-2" d="M205.59,152.8c-3.17,4.07-7.82,5.08-12.57,5.88A35.43,35.43,0,0,1,205.59,152.8Z" transform="translate(-24.5 -38.02)"/><path class="cls-2" d="M194.6,194.44l1.61,1.57a21.39,21.39,0,0,1-6.11,6c-1.2.22-1.82-.15-1.49-1.46A24,24,0,0,1,194.6,194.44Z" transform="translate(-24.5 -38.02)"/><path class="cls-2" d="M211.64,150.43a6.67,6.67,0,0,0-.43,2.23c.16,1,1.9,2,.34,3-2.13,1.37-2-.94-2.72-1.86-.85-1.09-2.13-.84-3.29-1A9.45,9.45,0,0,1,211.64,150.43Z" transform="translate(-24.5 -38.02)"/><path class="cls-3" d="M377.45,186.26c-5.68-.54-11.54,1.4-17.08-1.19C366.08,185.29,371.93,183.42,377.45,186.26Z" transform="translate(-24.5 -38.02)"/><path class="cls-2" d="M215.3,298.52l-.09,7.41c-2.11-3.35-3.92-6.7,0-10.05C215.23,296.76,215.27,297.64,215.3,298.52Z" transform="translate(-24.5 -38.02)"/><path class="cls-2" d="M252.65,339.16c2.1,1.62,4.19,4.08,6.27,0q-.66,3-1.31,5.94c-1.37.77-1.76-.61-2.54-1.12A9.72,9.72,0,0,1,252.65,339.16Z" transform="translate(-24.5 -38.02)"/><path class="cls-2" d="M298.69,378.48a3.93,3.93,0,0,0,3.74,2.47,8.6,8.6,0,0,1-7.27,2.06Z" transform="translate(-24.5 -38.02)"/><path class="cls-2" d="M117.36,305.69a10,10,0,0,0,2.29-7l.14-.14c.43-.56.77-.51,1,.15l.35,4.15c.63,2.46.32,4.48-2.57,5.25Z" transform="translate(-24.5 -38.02)"/><path class="cls-2" d="M118.58,308.07c1.72-1.33,2.25-3.24,2.57-5.25a4.9,4.9,0,0,1,1,4.07c-2.35,1.54-1.94,3.92-1.63,6.45C117.76,312,118.87,309.82,118.58,308.07Z" transform="translate(-24.5 -38.02)"/><path class="cls-2" d="M188.61,200.54,190.1,202c-.34,2.39-1.91,3.62-4.46,4.43C185.11,203.54,187.46,202.31,188.61,200.54Z" transform="translate(-24.5 -38.02)"/><path class="cls-2" d="M128.37,268.64c.7-.38,1.4-.76,2.09-1.15.43,3-.55,5.79-2.09,8.66Z" transform="translate(-24.5 -38.02)"/><path class="cls-9" d="M218.94,124.26c-1.63-2.26-3.35-4.09-6-1.2,0-2.16,1.07-4.22,3.21-3.87C218.42,119.56,219.08,122,218.94,124.26Z" transform="translate(-24.5 -38.02)"/><path class="cls-2" d="M174.19,183.88c2.13-2.54,3.68-5.84,7.79-5.76C179.69,180.45,177.47,182.85,174.19,183.88Z" transform="translate(-24.5 -38.02)"/><path class="cls-2" d="M208,136.21c-2.3,0-2.68-2-3.74-3.36a1.25,1.25,0,0,1,.22-1.85c1.62.78,3.61,1,4.5,2.88C208.64,134.64,209,135.7,208,136.21Z" transform="translate(-24.5 -38.02)"/><path class="cls-3" d="M229.76,322.42c-3.36,1.11-5.3-.16-6-3.5C226.37,319.06,228,320.79,229.76,322.42Z" transform="translate(-24.5 -38.02)"/><path class="cls-10" d="M164.38,303c.5,3.28-.12,6-3.63,7.4A18.78,18.78,0,0,1,164.38,303Z" transform="translate(-24.5 -38.02)"/><path class="cls-3" d="M166.83,297.08a41.83,41.83,0,0,1,.89,4.54c.06.64-.51,1.33-.79,2l-2.27-1.47Z" transform="translate(-24.5 -38.02)"/><path class="cls-3" d="M172.91,200.84c.18-2,1.31-2.83,3.26-2.38.42.09.72.75,1.07,1.15l-2.92,1.86Z" transform="translate(-24.5 -38.02)"/><path class="cls-2" d="M302.38,381c1.94-2.41,3.8-5,7.59-3.49A16.83,16.83,0,0,1,302.38,381Z" transform="translate(-24.5 -38.02)"/><path class="cls-2" d="M215.27,149.24c.07,1.07,2.73,1.5,1.18,2.62s-3.18-1-4.84-1.42A4.57,4.57,0,0,1,215.27,149.24Z" transform="translate(-24.5 -38.02)"/><path class="cls-3" d="M137.77,282c3.78-.85,2.15-3.87,2.52-6.09a5.1,5.1,0,0,1,.39,6.76C140,283.7,138.57,283.07,137.77,282Z" transform="translate(-24.5 -38.02)"/><path class="cls-2" d="M178.86,367.35c-.06,3.33-2.81,4-5.15,5A11.8,11.8,0,0,1,178.86,367.35Z" transform="translate(-24.5 -38.02)"/><path class="cls-3" d="M195.42,216.4l-.09-11.18C198.4,208.93,198.09,212.65,195.42,216.4Z" transform="translate(-24.5 -38.02)"/><path class="cls-2" d="M208,136.21l1-2.33c.77,1.72,3.34.3,4,2.23a2.82,2.82,0,0,0-2.66,1.45C209.47,137.27,208.27,137.54,208,136.21Z" transform="translate(-24.5 -38.02)"/><path class="cls-3" d="M162.09,259.23l-2.58-.18,5-2.31C166.84,260.54,163.82,259.27,162.09,259.23Z" transform="translate(-24.5 -38.02)"/><path class="cls-3" d="M195,206.29c-1.06,2.06-2.41.92-3.71.34a2.38,2.38,0,0,1,2.2-2.35C194.87,204.16,194.87,205.31,195,206.29Z" transform="translate(-24.5 -38.02)"/><path class="cls-2" d="M168.14,180.33a3.23,3.23,0,0,1-3.76-.12,4,4,0,0,1,2.36-2.34A2.43,2.43,0,0,1,168.14,180.33Z" transform="translate(-24.5 -38.02)"/><path class="cls-2" d="M222.84,139.62c-2.42.2-4.89.56-6.33-2.11C218.92,137.32,220.9,138.41,222.84,139.62Z" transform="translate(-24.5 -38.02)"/><path class="cls-2" d="M151.3,210.36c-1.37-2.74-.19-3.72,2.57-3.61A5.48,5.48,0,0,1,151.3,210.36Z" transform="translate(-24.5 -38.02)"/><path class="cls-3" d="M191.8,215.16c1.4.23,2.81.68,4.16-.2,0,1.2-.36,2.47-1.6,2.67C192.71,217.9,192.34,216.32,191.8,215.16Z" transform="translate(-24.5 -38.02)"/><path class="cls-2" d="M204.5,131c-.07.62-.15,1.23-.22,1.85l-4.53-3.38C202.23,128.34,203.3,129.86,204.5,131Z" transform="translate(-24.5 -38.02)"/><path class="cls-2" d="M217.38,308.23c3-1.59,3.23.76,3.85,2.59A7.57,7.57,0,0,1,217.38,308.23Z" transform="translate(-24.5 -38.02)"/><path class="cls-2" d="M263.57,158.64l-3.54.15,1.2-2.31C263.06,156.09,263.86,156.79,263.57,158.64Z" transform="translate(-24.5 -38.02)"/><path class="cls-3" d="M122.24,294.91c-1.54-.87-1.12-2.45-1.39-3.78.45-.72.89-1.45,1.33-2.17Z" transform="translate(-24.5 -38.02)"/><path class="cls-3" d="M193.57,137.39l1,3.92C193.19,140.28,189.26,139.89,193.57,137.39Z" transform="translate(-24.5 -38.02)"/><path class="cls-2" d="M223.68,281.61c.19,2.15,0,4.1-2.5,4.93Z" transform="translate(-24.5 -38.02)"/><path class="cls-2" d="M325.15,166c-2.9,1.38-2.56-1.37-3.4-2.61C323.18,163.92,324.65,164.36,325.15,166Z" transform="translate(-24.5 -38.02)"/><path class="cls-2" d="M221.35,174.33c-.91,2.2-2.76,2.56-4.86,2.42C218,175.66,219.23,174.17,221.35,174.33Z" transform="translate(-24.5 -38.02)"/><path class="cls-3" d="M125.88,286.57l-3.7,2.39C122.8,287.24,122.75,284.5,125.88,286.57Z" transform="translate(-24.5 -38.02)"/><path class="cls-2" d="M255.07,344l2.54,1.12-.23,2.75C255.51,347.18,255.34,345.54,255.07,344Z" transform="translate(-24.5 -38.02)"/><path class="cls-2" d="M222.56,179.08c1.06-2.27,3-2.48,5.18-2.2C226.24,178.14,224.73,179.37,222.56,179.08Z" transform="translate(-24.5 -38.02)"/><path class="cls-3" d="M243.42,335.41c-2.57.21-2.76-1.49-2.75-3.35C242.45,332.48,242.93,334,243.42,335.41Z" transform="translate(-24.5 -38.02)"/><path class="cls-2" d="M307.14,359.28c-.08,2.64-1.89,2.57-3.78,2.36A5.53,5.53,0,0,1,307.14,359.28Z" transform="translate(-24.5 -38.02)"/><path class="cls-2" d="M249.11,320.93c-.06,1.25-.84,3-1.81,2.31a47,47,0,0,1-7.55-7.38c-.65-.78.51-2.22,1.77-2.57S249.22,319.42,249.11,320.93Z" transform="translate(-24.5 -38.02)"/><path class="cls-2" d="M229.81,314c-1.4-1.19.4-2.38,0-3.58C233.6,311.65,231.7,312.85,229.81,314Z" transform="translate(-24.5 -38.02)"/><path class="cls-2" d="M297.47,318c-.23,1-.53,1.7-1.46,1.77s-1.76-.06-1.45-1.1c.14-.47,1.14-.77,1.8-1C296.59,317.65,297.58,317,297.47,318Z" transform="translate(-24.5 -38.02)"/><path class="cls-3" d="M239.94,352.6c-2.48-1.37-6.94,1.5-7-2.3-.06-3,4.27-1.58,6.55-1.51,2.66.08,7.4-1.68,7.43,2C246.93,353.83,242.16,351.15,239.94,352.6Z" transform="translate(-24.5 -38.02)"/><path class="cls-3" d="M160.89,328.71c0,3.35-.14,6.7,0,10,.16,2.94-1.3,6.38,2.78,8.27,1.25.59,1.19,2.61-.22,3.52s-2.23-.12-2.84-1.28c-1-1.93-2.67-3.86-2.08-6.07C159.86,338.37,159.64,333.45,160.89,328.71Z" transform="translate(-24.5 -38.02)"/><path class="cls-3" d="M245.92,354.63a18.79,18.79,0,0,1-12.83-.09A20.54,20.54,0,0,1,245.92,354.63Z" transform="translate(-24.5 -38.02)"/><path class="cls-3" d="M196,250.77v-1.19c-1.09-4.13.3-6.29,4.84-6h0A14.23,14.23,0,0,1,196,250.77Z" transform="translate(-24.5 -38.02)"/><path class="cls-3" d="M164.85,355.41c.19,1-.32,1.55-1.25,1.43a2.66,2.66,0,0,1-2.51-2.81,1.46,1.46,0,0,1,1.47-1.55C164.58,352.45,164.36,354.22,164.85,355.41Z" transform="translate(-24.5 -38.02)"/><path class="cls-3" d="M160,273.07c.14,1-.34,1.51-1.25,1.34-1.12-.22-1.45-1.12-1.42-2.16,0-.75.06-1.73,1-1.72C160.09,270.54,159.46,272.25,160,273.07Z" transform="translate(-24.5 -38.02)"/><path class="cls-3" d="M220.27,317.48a5.86,5.86,0,0,1-4.62,3.46c.38-3.42,2.65-3.23,4.64-3.43Z" transform="translate(-24.5 -38.02)"/><path class="cls-3" d="M203.22,252.72c-.15.89.18,1.93-1,1.86-.39,0-.94-.71-1.06-1.19a1.27,1.27,0,0,1,1.16-1.66C202.61,251.71,203,252.43,203.22,252.72Z" transform="translate(-24.5 -38.02)"/><path class="cls-2" d="M182.65,400c1.9-1.34-.07-6,3.22-5.2,4.41,1.08,9.32,2.21,12.2,6.4.41.6.14,2.53-.28,2.69-2.1.81-4.82.85-6.08-.83-2.47-3.29-5.64-3.21-9.06-3.06Z" transform="translate(-24.5 -38.02)"/><path class="cls-2" d="M116.15,316.43c-2.69-.15-5.66.06-2.93-4.08,1.12-1.7,1-4.12,2.93-5.47Z" transform="translate(-24.5 -38.02)"/><path class="cls-2" d="M113.74,320l2.41-2.38c-.08,1.43.34,3.17-1.37,3.86C114,321.82,113.83,320.71,113.74,320Z" transform="translate(-24.5 -38.02)"/><path class="cls-2" d="M271.16,160.64a1.81,1.81,0,0,1,2-1.67c1.3,0,2.43.35,2.22,1.95-.16,1.23-1.19,1.4-2.23,1.39A1.82,1.82,0,0,1,271.16,160.64Z" transform="translate(-24.5 -38.02)"/><path class="cls-2" d="M289.05,341.5c0-1.24-.05-2.48-.08-3.72l0,.08c3-.95,4.76,1.3,5.25,3.21.39,1.52-1.91,2.73-3.92,2.82C289.28,343.38,289.75,342.15,289.05,341.5Z" transform="translate(-24.5 -38.02)"/><path class="cls-2" d="M289.05,341.5a2.48,2.48,0,0,1,1.21,2.39c-.25,1,.63,2.55-1.1,2.84-.81.14-2.06.47-2.44-.87C286.11,343.7,288,342.82,289.05,341.5Z" transform="translate(-24.5 -38.02)"/><path class="cls-3" d="M273.33,330.77c3.46-1.43,7.17-4.93,9.68,1.18-4.75-1.18-7.88,3-12.1,3.58C270.74,333.46,272.65,332.41,273.33,330.77Z" transform="translate(-24.5 -38.02)"/><path class="cls-2" d="M162.85,184.6c1.35,2,1.32,3.3-.18,4.49C161.14,187.59,161.09,186.17,162.85,184.6Z" transform="translate(-24.5 -38.02)"/><path class="cls-3" d="M353.13,225.7c-4.65,2.6-9.64,1.11-14.51,1.2a6.56,6.56,0,0,1-2.42-4.79,25.28,25.28,0,0,1,0-11.92c-1.56-3.55-2.86-5.91-7.8-3.12s-3.51-1.53-3.08-4a8.31,8.31,0,0,1-.43-3.41c.89-4.82-.84-8.12-5.61-9.73,2.56-5.64,6.53-.12,9.67-1.19l.42-.42c2.14-2,7.23,1.36,7.52-4.4a31.14,31.14,0,0,0-.69-9.5c0-9.07,6.66-7.09,12.09-7.17-1.32,3.42,1.72,2.88,3.36,3.6,1.88.79,2.74,2.1,2.19,4.13-3.68,4.06-4,8-.88,12.13,2-.14,2.41-2.25,3.8-3.14A5.93,5.93,0,0,1,358,184c-.28,3.07.57,5.07,4.26,4.67a39.58,39.58,0,0,1,4.22,0c11.94,0,11.63,0,11,11.85-.23,4.59-5.55,3.68-6.19,7.21-3.57-.24-7.18.6-10.75-.59-2.47-.83-5.64,3.07-7.4-1.65-1.94,2.52-.34,6-3.61,7.06-1.64-1.53-.08-3.57-.9-5.23.85,2.48-2.22,5.39.89,7.62q1.81,2.47,3.63,0C354.92,218.54,354.47,222.12,353.13,225.7Z" transform="translate(-24.5 -38.02)"/><path class="cls-3" d="M336.2,174.37c4.63,4,1.83,9.06.8,13.14-.73,2.92-5.29.53-8.05,1.18.71-.8-4.07-1.6,0-2.4,7.31-.45,8.1-2,6.18-11.8A4.88,4.88,0,0,1,336.2,174.37Z" transform="translate(-24.5 -38.02)"/><path class="cls-3" d="M353.13,175.56c0-1.74,0-3.47-2.42-3.58-1.41-2-1.11-3.66,1.22-4.77,7,1,2.14,6.46,3.62,9.54-.71.86-1.28,2-2.72,1.1A1.73,1.73,0,0,1,353.13,175.56Z" transform="translate(-24.5 -38.02)"/><path class="cls-3" d="M351.93,167.21a7.87,7.87,0,0,0-1.22,4.77L344,170.14c.68-2.61,3.59-1.06,4.32-2.94C349.5,166.89,350.72,165.3,351.93,167.21Z" transform="translate(-24.5 -38.02)"/><path class="cls-3" d="M356.76,183.92c.12,2.57-.5,4.6-3.63,4.77-1.3-1.28-1.33-2.84-1-4.48.77-1.61.67-4,3.43-3.87C355.59,181.65,355.34,183.06,356.76,183.92Z" transform="translate(-24.5 -38.02)"/><path class="cls-3" d="M355.55,180.34l-2.42,3.58a4.1,4.1,0,0,1,0-6l2.42-1.2Z" transform="translate(-24.5 -38.02)"/><path class="cls-3" d="M319.28,189.88c8,.07,9.57,3.59,6,13.14H321.7a2,2,0,0,1-2.95-.3c-1.32-4.33-.71-8.6.53-12.83Z" transform="translate(-24.5 -38.02)"/><path class="cls-3" d="M319.28,203h2.42c-.5,1.58,2.91,4.39-1.51,4.73-3.8.29-3.28-2.43-3.33-4.73h0C317.67,202.23,318.47,203,319.28,203Z" transform="translate(-24.5 -38.02)"/><path class="cls-11" d="M336.2,210.19v11.92A13.24,13.24,0,0,1,336.2,210.19Z" transform="translate(-24.5 -38.02)"/><path class="cls-3" d="M319.28,203c-.81,1.32-1.61.1-2.42,0,.38-4.46-1.13-9.25,2.42-13.13Z" transform="translate(-24.5 -38.02)"/><path class="cls-3" d="M132.75,307.53c-.1-.35-.48-.93-.32-1.26s.85-.58,1.3-.86a2.88,2.88,0,0,1,.39,1C134.08,307.08,133.79,307.61,132.75,307.53Z" transform="translate(-24.5 -38.02)"/><path class="cls-3" d="M349.5,215,346,217.08c1.39-4.08,1-7.56,1.13-11,0-1.19.13-2.6,1.63-2.67,2-.09,2.06,1.6,1.91,2.93-.23,2.1-.75,4.18-1.14,6.27Z" transform="translate(-24.5 -38.02)"/><path class="cls-3" d="M353.13,225.7c-1.15-3.58,0-7.16,0-10.74a2.19,2.19,0,0,1,2.41-2.39c-.62,4.36,1.38,9-1.2,13.13h-1.21Z" transform="translate(-24.5 -38.02)"/><path class="cls-3" d="M200.79,243.6c-3.51.5-4.95,2.63-4.84,6-2.27-2-.9-4,.05-5.93C197.59,243.08,199.15,240,200.79,243.6Z" transform="translate(-24.5 -38.02)"/><path class="cls-3" d="M338.77,218.74v-14.3c.75,3.8,6.5,2.63,6.82,5.87C346,213.94,342,215.47,338.77,218.74Z" transform="translate(-24.5 -38.02)"/><path class="cls-3" d="M353.13,178v10.74c-1.41.65-3.13.9-3.29-1a62.34,62.34,0,0,1,0-11.75c.24-2.2,2.13-.71,3.34-.41Z" transform="translate(-24.5 -38.02)"/></svg>